<svg xmlns="http://www.w3.org/2000/svg" width="24" height="24" viewBox="0 0 24 24" fill="none" stroke="currentColor" stroke-width="1.8" stroke-linecap="round" stroke-linejoin="round" aria-hidden="true">
  <path d="M7.2 8.2h9.6c1.1 0 2 .7 2.3 1.7l1.1 4.1c.5 1.8-.9 3.5-2.7 3.5h-.4c-.8 0-1.6-.4-2.1-1.1l-1-1.4H10l-1 1.4c-.5.7-1.3 1.1-2.1 1.1h-.4c-1.8 0-3.2-1.7-2.7-3.5l1.1-4.1c.3-1 1.2-1.7 2.3-1.7Z"/>
  <path d="M8 11v3"/>
  <path d="M6.5 12.5h3"/>
  <circle cx="16.3" cy="11.5" r=".7" fill="currentColor" stroke="none"/>
  <circle cx="18" cy="13.2" r=".7" fill="currentColor" stroke="none"/>
  <path d="M9.6 5.4 10.3 4l.7 1.4 1.4.7-1.4.7-.7 1.4-.7-1.4-1.4-.7 1.4-.7Z"/>
</svg>
