<svg width="24" height="24" viewBox="0 0 24 24" fill="none" xmlns="http://www.w3.org/2000/svg" role="img" aria-hidden="true">
  <defs>
    <filter id="glow" x="-50%" y="-50%" width="200%" height="200%">
      <feGaussianBlur stdDeviation="1.35" result="blur"/>
      <feMerge>
        <feMergeNode in="blur"/>
        <feMergeNode in="SourceGraphic"/>
      </feMerge>
    </filter>
  </defs>
  <g filter="url(#glow)" stroke="#D775FF" stroke-width="1.8" stroke-linecap="round" stroke-linejoin="round">
    <path d="M16.8 8.1C15.8 8.3 14.9 7.8 14.5 6.9C14.1 6 14.4 5 15.1 4.4C14.1 3.8 13 3.5 11.9 3.5C7.7 3.5 4.3 6.9 4.3 11.1C4.3 15.3 7.7 18.7 11.9 18.7C16.1 18.7 19.5 15.3 19.5 11.1C19.5 10 19.2 8.9 18.6 8C18 8.2 17.4 8.2 16.8 8.1Z"/>
    <circle cx="9" cy="9.1" r="0.9"/>
    <circle cx="8.2" cy="13.1" r="0.9"/>
    <circle cx="12.1" cy="11.2" r="0.9"/>
    <circle cx="14.2" cy="14.2" r="0.9"/>
  </g>
</svg>
