<svg xmlns="http://www.w3.org/2000/svg" viewBox="0 0 32 32" fill="none" stroke="currentColor" stroke-width="1.8" stroke-linecap="round" stroke-linejoin="round" aria-hidden="true">
  <path d="M12.5 7.5v-2M19.5 7.5v-2"/>
  <path d="M16 5.5v-2"/>
  <circle cx="16" cy="2.8" r="1.2"/>
  <rect x="8" y="8" width="16" height="15" rx="5"/>
  <path d="M8 13H6.5a2 2 0 0 0-2 2v2a2 2 0 0 0 2 2H8M24 13h1.5a2 2 0 0 1 2 2v2a2 2 0 0 1-2 2H24"/>
  <path d="M12 15.5c.5 1.2 1.2 1.8 2 1.8s1.5-.6 2-1.8M16 15.5c.5 1.2 1.2 1.8 2 1.8s1.5-.6 2-1.8"/>
  <path d="M5.2 8.2c.2 1.2.85 1.85 2.05 2.05-1.2.2-1.85.85-2.05 2.05-.2-1.2-.85-1.85-2.05-2.05 1.2-.2 1.85-.85 2.05-2.05ZM26.8 7.6c.2 1.2.85 1.85 2.05 2.05-1.2.2-1.85.85-2.05 2.05-.2-1.2-.85-1.85-2.05-2.05 1.2-.2 1.85-.85 2.05-2.05Z" opacity=".8"/>
</svg>
