<svg xmlns="http://www.w3.org/2000/svg" viewBox="0 0 32 32" fill="none" stroke="currentColor" stroke-width="1.8" stroke-linecap="round" stroke-linejoin="round" aria-hidden="true">
  <path d="M5 12.5c.6-2.3 2.5-3.8 4.8-3.8.8-3.1 3.6-5.2 6.8-5.2 3.4 0 6.3 2.4 6.8 5.7 3.2.1 5.6 2.7 5.6 5.8"/>
  <path d="M4.8 18h12.8M3.5 22h18.5M8 26h16"/>
  <path d="M17.2 18c.7-2.3 2.8-3.9 5.2-3.9 3.1 0 5.6 2.5 5.6 5.6"/>
  <path d="M26.6 8.2c.17 1 .7 1.55 1.7 1.7-1 .18-1.53.72-1.7 1.72-.17-1-.7-1.54-1.7-1.72 1-.15 1.53-.7 1.7-1.7Z" opacity=".72"/>
</svg>
