<svg xmlns="http://www.w3.org/2000/svg" viewBox="0 0 32 32" fill="none" stroke="currentColor" stroke-width="1.8" stroke-linecap="round" stroke-linejoin="round" aria-hidden="true">
  <path d="M20.6 6.1a9.4 9.4 0 1 0 5.2 14.7A8 8 0 0 1 20.6 6.1Z"/>
  <path d="M6 23.2c3.4-.9 6.9-.8 10.2.2 3.2 1 6.5 1.1 9.8.2"/>
  <path d="M8 26c2.8-.6 5.6-.4 8.3.4 2.8.8 5.6.9 8.4.3"/>
  <path d="M24 7.2c.25 1.55 1.1 2.4 2.65 2.65C25.1 10.1 24.25 11 24 12.5c-.25-1.5-1.1-2.4-2.65-2.65C22.9 9.6 23.75 8.75 24 7.2Z"/>
  <path d="M27.2 13.4c.17 1 .7 1.55 1.7 1.7-1 .18-1.53.72-1.7 1.72-.17-1-.7-1.54-1.7-1.72 1-.15 1.53-.7 1.7-1.7Z" opacity=".78"/>
</svg>
