<svg xmlns="http://www.w3.org/2000/svg" viewBox="0 0 32 32" fill="none" stroke="currentColor" stroke-width="1.8" stroke-linecap="round" stroke-linejoin="round" aria-hidden="true">
  <path d="M12 22V9.5"/>
  <path d="M12 10c4-2.3 6.4 1 10.2-.9v7.4c-3.8 1.9-6.2-1.4-10.2.9"/>
  <path d="M8.4 7.4A11 11 0 0 0 5 16c0 6.1 4.9 11 11 11 4.6 0 8.5-2.8 10.2-6.8"/>
  <path d="M7.6 24.7A13 13 0 0 1 3 16C3 8.8 8.8 3 16 3c3.5 0 6.8 1.4 9.2 3.8"/>
  <path d="M25.4 5.3c.2 1.2.85 1.85 2.05 2.05-1.2.2-1.85.85-2.05 2.05-.2-1.2-.85-1.85-2.05-2.05 1.2-.2 1.85-.85 2.05-2.05Z"/>
</svg>
