<svg xmlns="http://www.w3.org/2000/svg" width="24" height="24" viewBox="0 0 24 24" fill="none" stroke="currentColor" stroke-width="1.9" stroke-linecap="round" stroke-linejoin="round"><circle cx="12" cy="12" r="3"/><path d="M19 12a7.2 7.2 0 0 0-.1-1.1l2-1.5-2-3.4-2.4 1a7.6 7.6 0 0 0-1.9-1.1L14.3 3h-4.6l-.3 2.9A7.6 7.6 0 0 0 7.5 7L5.1 6 3.1 9.4l2 1.5A7.2 7.2 0 0 0 5 12c0 .4 0 .8.1 1.1l-2 1.5 2 3.4 2.4-1a7.6 7.6 0 0 0 1.9 1.1l.3 2.9h4.6l.3-2.9a7.6 7.6 0 0 0 1.9-1.1l2.4 1 2-3.4-2-1.5c.1-.3.1-.7.1-1.1z"/></svg>