<svg xmlns="http://www.w3.org/2000/svg" viewBox="0 0 32 32" fill="none" stroke="currentColor" stroke-width="1.8" stroke-linecap="round" stroke-linejoin="round" aria-hidden="true">
  <path d="M16 3.8l2.7 7 7.5-3.3-3.3 7.5 7 2.7-7 2.7 3.3 7.5-7.5-3.3-2.7 7-2.7-7-7.5 3.3 3.3-7.5-7-2.7 7-2.7-3.3-7.5 7.5 3.3 2.7-7Z"/>
  <path d="M16 12.2c.35 2.1 1.5 3.25 3.6 3.6-2.1.35-3.25 1.5-3.6 3.6-.35-2.1-1.5-3.25-3.6-3.6 2.1-.35 3.25-1.5 3.6-3.6Z"/>
  <path d="M5.5 6.8c.18 1.05.75 1.62 1.8 1.8-1.05.18-1.62.75-1.8 1.8-.18-1.05-.75-1.62-1.8-1.8 1.05-.18 1.62-.75 1.8-1.8ZM26.5 5.5c.18 1.05.75 1.62 1.8 1.8-1.05.18-1.62.75-1.8 1.8-.18-1.05-.75-1.62-1.8-1.8 1.05-.18 1.62-.75 1.8-1.8Z" opacity=".8"/>
</svg>
