<svg xmlns="http://www.w3.org/2000/svg" viewBox="0 0 32 32" fill="none" stroke="currentColor" stroke-width="1.8" stroke-linecap="round" stroke-linejoin="round" aria-hidden="true">
  <path d="M16 7 23 11v9l-7 4-7-4v-9l7-4Z"/>
  <path d="m9 11 7 4 7-4M16 15v9"/>
  <path d="M13.2 12.1c.5-.8 1.4-1.3 2.4-1.3 1.7 0 3 1.1 3 2.6 0 1.2-.7 1.8-1.8 2.4-.9.5-1.3 1-1.3 2M15.5 20.8h.01"/>
  <path d="M25.6 6.5c.2 1.2.85 1.85 2.05 2.05-1.2.2-1.85.85-2.05 2.05-.2-1.2-.85-1.85-2.05-2.05 1.2-.2 1.85-.85 2.05-2.05Z"/>
  <path d="M5.2 8.2A12.8 12.8 0 0 0 3.2 15M4 22a12.7 12.7 0 0 0 6.2 5.7M20.7 28.1A12.7 12.7 0 0 0 28.8 20M28.6 13.2a12.8 12.8 0 0 0-4.7-7.1" opacity=".78"/>
</svg>
