<svg width="1440" height="900" viewBox="0 0 1440 900" fill="none" xmlns="http://www.w3.org/2000/svg">
  <title>Vault reveal hero background</title>
  <defs>
    <radialGradient id="sceneGlow" cx="52%" cy="52%" r="55%">
      <stop offset="0%" stop-color="#F15FFF" stop-opacity="0.45"/>
      <stop offset="40%" stop-color="#775BFF" stop-opacity="0.22"/>
      <stop offset="100%" stop-color="#020814" stop-opacity="0"/>
    </radialGradient>
    <linearGradient id="doorMetal" x1="226" y1="160" x2="702" y2="720" gradientUnits="userSpaceOnUse">
      <stop stop-color="#5E78A3"/>
      <stop offset="0.36" stop-color="#1B2A4B"/>
      <stop offset="1" stop-color="#070D1E"/>
    </linearGradient>
    <linearGradient id="purpleLine" x1="230" y1="180" x2="720" y2="720" gradientUnits="userSpaceOnUse">
      <stop stop-color="#96E7FF"/>
      <stop offset="0.5" stop-color="#DA5DFF"/>
      <stop offset="1" stop-color="#765DFF"/>
    </linearGradient>
    <filter id="hugeGlow" x="-80%" y="-80%" width="260%" height="260%">
      <feGaussianBlur stdDeviation="20" result="blur"/>
      <feColorMatrix in="blur" type="matrix" values="0 0 0 0 0.88 0 0 0 0 0.25 0 0 0 0 1 0 0 0 0.85 0"/>
      <feBlend in="SourceGraphic" mode="screen"/>
    </filter>
  </defs>
  <rect width="1440" height="900" fill="#061426"/>
  <rect width="1440" height="900" fill="url(#sceneGlow)"/>
  <ellipse cx="720" cy="808" rx="580" ry="54" fill="#B64AFF" opacity="0.16"/>
  <g opacity="0.72">
    <circle cx="475" cy="478" r="300" fill="url(#doorMetal)" stroke="url(#purpleLine)" stroke-width="10"/>
    <circle cx="475" cy="478" r="220" fill="#071326" stroke="#2A4872" stroke-width="14"/>
    <circle cx="475" cy="478" r="116" fill="#101B35" stroke="#A776FF" stroke-width="10"/>
    <circle cx="475" cy="478" r="36" fill="#F7FBFF"/>
    <path d="M475 202V375M475 581V754M199 478H372M578 478H751M280 283L402 405M548 551L670 673M670 283L548 405M402 551L280 673" stroke="#A96CFF" stroke-width="22" stroke-linecap="round"/>
    <g fill="#111D36" stroke="#6A87B0" stroke-width="5">
      <circle cx="475" cy="178" r="18"/>
      <circle cx="688" cy="266" r="18"/>
      <circle cx="775" cy="478" r="18"/>
      <circle cx="688" cy="690" r="18"/>
      <circle cx="475" cy="778" r="18"/>
      <circle cx="262" cy="690" r="18"/>
      <circle cx="175" cy="478" r="18"/>
      <circle cx="262" cy="266" r="18"/>
    </g>
  </g>
  <path d="M782 250C925 328 1014 484 1002 650" stroke="#E557FF" stroke-width="44" stroke-linecap="round" opacity="0.35" filter="url(#hugeGlow)"/>
  <path d="M822 230C950 333 1018 480 989 628" stroke="#8CE9FF" stroke-width="14" stroke-linecap="round" opacity="0.32"/>
  <circle cx="935" cy="488" r="170" fill="#9B51FF" opacity="0.10" filter="url(#hugeGlow)"/>
</svg>