<svg width="1440" height="360" viewBox="0 0 1440 360" fill="none" xmlns="http://www.w3.org/2000/svg">
  <title>Vault Shuffle logo lockup</title>
  <defs>
    <linearGradient id="textPurple" x1="740" y1="80" x2="1280" y2="300" gradientUnits="userSpaceOnUse">
      <stop stop-color="#F069FF"/>
      <stop offset="0.56" stop-color="#A86CFF"/>
      <stop offset="1" stop-color="#6DCAFF"/>
    </linearGradient>
    <filter id="glow" x="-20%" y="-50%" width="140%" height="200%">
      <feGaussianBlur stdDeviation="8" result="blur"/>
      <feColorMatrix in="blur" type="matrix" values="0 0 0 0 0.72 0 0 0 0 0.27 0 0 0 0 1 0 0 0 0.8 0"/>
      <feBlend in="SourceGraphic" mode="screen"/>
    </filter>
  </defs>
  <rect width="1440" height="360" rx="0" fill="#061426"/>
  <g transform="translate(85 56) scale(0.48)">
    
  <circle cx="256" cy="258" r="208" fill="url(#gGlow)"/>
  <path d="M256 60L420 154V344L256 452L92 344V154L256 60Z" fill="url(#gFill)" stroke="url(#gStroke)" stroke-width="22" filter="url(#softGlow)"/>
  <path d="M133 177L256 106L379 177" stroke="#E6D6FF" stroke-opacity="0.78" stroke-width="20" stroke-linecap="round" stroke-linejoin="round"/>
  <path d="M379 177V270" stroke="#D84DFF" stroke-width="20" stroke-linecap="round"/>
  <path d="M344 236L379 270L414 236" stroke="#D84DFF" stroke-width="20" stroke-linecap="round" stroke-linejoin="round"/>
  <path d="M379 335L256 406L133 335" stroke="#8F6CFF" stroke-width="20" stroke-linecap="round" stroke-linejoin="round"/>
  <path d="M133 335V243" stroke="#8F6CFF" stroke-width="20" stroke-linecap="round"/>
  <path d="M98 277L133 243L168 277" stroke="#8F6CFF" stroke-width="20" stroke-linecap="round" stroke-linejoin="round"/>
  <circle cx="256" cy="260" r="86" fill="#111E3B" stroke="#A87CFF" stroke-width="12"/>
  <circle cx="256" cy="260" r="48" fill="#0B1228" stroke="#CDEBFF" stroke-opacity="0.55" stroke-width="8"/>
  <circle cx="256" cy="260" r="18" fill="#F5FBFF"/>
  <path d="M256 154V216M256 304V366M150 260H212M300 260H362M181 185L225 229M287 291L331 335M331 185L287 229M225 291L181 335" stroke="url(#gStroke)" stroke-width="14" stroke-linecap="round"/>
  <rect x="83" y="204" width="28" height="108" rx="8" fill="#9B69FF" stroke="#DCC6FF" stroke-opacity="0.45" stroke-width="4"/>

  </g>
  <text x="380" y="215" fill="#F5FBFF" font-family="Inter, Arial, sans-serif" font-size="92" font-weight="800" letter-spacing="18">VAULT</text>
  <text x="760" y="215" fill="url(#textPurple)" font-family="Inter, Arial, sans-serif" font-size="92" font-weight="800" letter-spacing="18" filter="url(#glow)">SHUFFLE</text>
</svg>